#define icon_width 16
#define icon_height 16
static unsigned short icon_bits[] = {
   0xffff, 0xffff, 0xfc3f, 0xfc7f, 0xfc3f, 0xfc3f, 0xfc3f, 0xf81f, 0xf81f,
   0xf81f, 0xf00f, 0xe007, 0xe007, 0xf00f, 0xf25f, 0xffff };
